<svg width="167" height="34" viewBox="0 0 167 34" fill="none" xmlns="http://www.w3.org/2000/svg">
<g clip-path="url(#clip0_428_93756)">
<path d="M0 6.375C0 2.85418 2.85418 0 6.375 0H27.625C31.1458 0 34 2.85418 34 6.375V27.625C34 31.1458 31.1458 34 27.625 34H6.375C2.85418 34 0 31.1458 0 27.625V6.375Z" fill="url(#paint0_linear_428_93756)"/>
<path fill-rule="evenodd" clip-rule="evenodd" d="M29.8587 24.1617H23.0041C22.4243 24.1617 21.932 23.7034 21.8836 23.1183C21.8324 22.4959 21.6601 21.9081 21.3912 21.3767C21.4758 21.0976 21.5612 20.813 21.6464 20.5257C22.1356 21.2655 22.4486 22.132 22.5255 23.0652C22.5418 23.2638 22.6729 23.4304 22.8514 23.492C22.8992 23.5087 22.9505 23.5175 23.004 23.5175H23.0041H29.8587C29.9327 23.5175 30.0049 23.5087 30.0741 23.492C30.478 23.3945 30.777 23.029 30.748 22.5964C30.2744 15.479 24.3511 9.85259 17.1137 9.85259C9.87653 9.85259 3.95318 15.479 3.47936 22.5964C3.44578 23.1029 3.86161 23.5175 4.369 23.5175H11.2232C11.476 23.5175 11.681 23.3172 11.7021 23.0652C11.9316 20.2779 14.2671 18.0872 17.1137 18.0872C17.606 18.0872 20.1075 18.2598 21.6464 20.5257C21.6355 20.5626 21.5049 20.9999 21.3912 21.3767C20.635 19.9024 18.7879 18.7313 17.1137 18.7313C14.6419 18.7313 12.5466 20.6582 12.344 23.1183C12.2956 23.7034 11.8032 24.1617 11.2232 24.1617H4.369C3.94055 24.1617 3.52817 23.9835 3.23766 23.6731C2.95148 23.367 2.80895 22.9696 2.83672 22.5538C3.07733 18.9372 4.66945 15.5751 7.31936 13.0859C9.9813 10.5856 13.4599 9.20831 17.1137 9.20831C20.7678 9.20831 24.2463 10.5856 26.9083 13.0859C29.5582 15.5751 31.1503 18.9372 31.3908 22.5538C31.4185 22.9696 31.276 23.367 30.9898 23.6731C30.6994 23.9835 30.2872 24.1617 29.8587 24.1617Z" fill="url(#paint1_linear_428_93756)"/>
<path fill-rule="evenodd" clip-rule="evenodd" d="M17.1137 9.85254C9.87654 9.85254 3.95319 15.479 3.47938 22.5964C3.4458 23.1029 3.86163 23.5175 4.36902 23.5175H11.2233C11.4761 23.5175 11.681 23.3171 11.7021 23.0652C11.9316 20.2778 14.2672 18.0872 17.1137 18.0872C17.606 18.0872 20.1076 18.2597 21.6465 20.5257C22.1356 21.2654 22.4487 22.1319 22.5255 23.0652C22.5419 23.2638 22.6729 23.4303 22.8514 23.492C22.8992 23.5086 22.9505 23.5175 23.0041 23.5175H29.8587C29.9327 23.5175 30.0049 23.5086 30.0741 23.492C30.478 23.3945 30.777 23.029 30.748 22.5964C30.2745 15.479 24.3511 9.85254 17.1137 9.85254Z" fill="url(#paint2_linear_428_93756)"/>
<path fill-rule="evenodd" clip-rule="evenodd" d="M20.2287 19.4505C21.4554 16.2426 22.8347 12.5129 22.5589 12.3609C22.2081 12.1676 18.9429 15.7999 16.5923 18.4703C15.9211 19.2328 15.2631 19.974 14.7855 20.6292C12.246 24.1132 17.4301 26.5789 18.9765 22.6726C19.3826 21.6468 19.8321 20.4875 20.2287 19.4505Z" fill="url(#paint3_linear_428_93756)"/>
</g>
<path d="M44.5033 14.9005C43.8678 14.9005 43.2984 14.7974 42.795 14.5911C42.2915 14.3847 41.8872 14.0794 41.5818 13.675C41.2847 13.2706 41.1279 12.7837 41.1114 12.2143H43.3644C43.3974 12.5361 43.5088 12.7837 43.6986 12.957C43.8884 13.1221 44.136 13.2046 44.4414 13.2046C44.755 13.2046 45.0026 13.1345 45.1841 12.9942C45.3657 12.8456 45.4565 12.6434 45.4565 12.3876C45.4565 12.173 45.3822 11.9956 45.2336 11.8553C45.0933 11.715 44.9159 11.5995 44.7013 11.5087C44.495 11.4179 44.1979 11.3147 43.81 11.1992C43.2489 11.0259 42.7908 10.8526 42.436 10.6793C42.0811 10.506 41.7758 10.2501 41.5199 9.91178C41.2641 9.57342 41.1362 9.1319 41.1362 8.58722C41.1362 7.77846 41.4291 7.14712 42.0151 6.69323C42.601 6.23108 43.3644 6 44.3052 6C45.2625 6 46.0341 6.23108 46.6201 6.69323C47.206 7.14712 47.5196 7.78258 47.5609 8.5996H45.2708C45.2543 8.31901 45.1511 8.10031 44.9613 7.94351C44.7715 7.77846 44.528 7.69593 44.2309 7.69593C43.9751 7.69593 43.7688 7.76608 43.612 7.90637C43.4552 8.03842 43.3768 8.23235 43.3768 8.48819C43.3768 8.76878 43.5088 8.98748 43.7729 9.14428C44.037 9.30108 44.4496 9.47026 45.0108 9.65182C45.572 9.84163 46.0259 10.0232 46.3725 10.1965C46.7274 10.3698 47.0327 10.6215 47.2886 10.9516C47.5444 11.2817 47.6723 11.7067 47.6723 12.2267C47.6723 12.7218 47.5444 13.1716 47.2886 13.576C47.041 13.9804 46.6779 14.3022 46.1992 14.5415C45.7205 14.7809 45.1552 14.9005 44.5033 14.9005Z" fill="#0D2793"/>
<path d="M51.4261 6.12379V11.323C51.4261 11.8429 51.554 12.2432 51.8098 12.5238C52.0656 12.8043 52.4411 12.9446 52.9363 12.9446C53.4315 12.9446 53.8111 12.8043 54.0752 12.5238C54.3393 12.2432 54.4713 11.8429 54.4713 11.323V6.12379H56.5881V11.3106C56.5881 12.0864 56.4231 12.7425 56.093 13.2789C55.7628 13.8153 55.3172 14.2197 54.756 14.492C54.2031 14.7644 53.5841 14.9005 52.8992 14.9005C52.2142 14.9005 51.5994 14.7685 51.0547 14.5044C50.5183 14.2321 50.0932 13.8277 49.7796 13.2913C49.466 12.7466 49.3092 12.0864 49.3092 11.3106V6.12379H51.4261Z" fill="#0D2793"/>
<path d="M65.0687 8.92145C65.0687 9.42487 64.9532 9.88702 64.7221 10.3079C64.491 10.7205 64.1362 11.0548 63.6575 11.3106C63.1789 11.5664 62.5847 11.6944 61.8749 11.6944H60.5628V14.8139H58.4459V6.12379H61.8749C62.5682 6.12379 63.1541 6.24345 63.6328 6.48278C64.1114 6.72211 64.4704 7.05222 64.7097 7.47311C64.9491 7.89399 65.0687 8.37678 65.0687 8.92145ZM61.714 10.0108C62.1184 10.0108 62.4196 9.9159 62.6177 9.72609C62.8157 9.53628 62.9148 9.26807 62.9148 8.92145C62.9148 8.57484 62.8157 8.30663 62.6177 8.11682C62.4196 7.927 62.1184 7.8321 61.714 7.8321H60.5628V10.0108H61.714Z" fill="#0D2793"/>
<path d="M68.6589 7.81972V9.57754H71.4937V11.2116H68.6589V13.1179H71.8651V14.8139H66.5421V6.12379H71.8651V7.81972H68.6589Z" fill="#0D2793"/>
<path d="M78.0425 14.8139L76.2351 11.5334H75.7276V14.8139H73.6108V6.12379H77.1635C77.8485 6.12379 78.4303 6.24345 78.909 6.48278C79.3959 6.72211 79.759 7.05222 79.9983 7.47311C80.2377 7.88574 80.3573 8.34789 80.3573 8.85956C80.3573 9.43725 80.1923 9.95304 79.8622 10.4069C79.5403 10.8608 79.0617 11.1827 78.4262 11.3725L80.4316 14.8139H78.0425ZM75.7276 10.0356H77.0397C77.4276 10.0356 77.7165 9.94066 77.9063 9.75085C78.1043 9.56104 78.2034 9.29283 78.2034 8.94621C78.2034 8.6161 78.1043 8.35614 77.9063 8.16633C77.7165 7.97652 77.4276 7.88161 77.0397 7.88161H75.7276V10.0356Z" fill="#0D2793"/>
<path d="M93.21 6.12379L90.1276 14.8139H87.4785L84.3961 6.12379H86.6491L88.803 12.6847L90.9694 6.12379H93.21Z" fill="#0D2793"/>
<path d="M96.5829 6.12379V14.8139H94.4661V6.12379H96.5829Z" fill="#0D2793"/>
<path d="M101.744 6.12379C102.66 6.12379 103.461 6.30535 104.146 6.66847C104.83 7.03159 105.359 7.54325 105.73 8.20347C106.11 8.85543 106.299 9.61055 106.299 10.4688C106.299 11.3189 106.11 12.074 105.73 12.7342C105.359 13.3944 104.826 13.9061 104.133 14.2692C103.448 14.6323 102.652 14.8139 101.744 14.8139H98.4883V6.12379H101.744ZM101.608 12.9818C102.408 12.9818 103.031 12.7631 103.477 12.3257C103.923 11.8883 104.146 11.2693 104.146 10.4688C104.146 9.66832 103.923 9.04524 103.477 8.5996C103.031 8.15395 102.408 7.93113 101.608 7.93113H100.605V12.9818H101.608Z" fill="#0D2793"/>
<path d="M109.971 7.81972V9.57754H112.805V11.2116H109.971V13.1179H113.177V14.8139H107.854V6.12379H113.177V7.81972H109.971Z" fill="#0D2793"/>
<path d="M119.032 14.9005C118.215 14.9005 117.464 14.7107 116.779 14.3311C116.103 13.9515 115.562 13.4233 115.158 12.7466C114.761 12.0616 114.563 11.2941 114.563 10.4441C114.563 9.59405 114.761 8.83067 115.158 8.15395C115.562 7.47723 116.103 6.94906 116.779 6.56944C117.464 6.18981 118.215 6 119.032 6C119.849 6 120.596 6.18981 121.273 6.56944C121.958 6.94906 122.494 7.47723 122.882 8.15395C123.278 8.83067 123.476 9.59405 123.476 10.4441C123.476 11.2941 123.278 12.0616 122.882 12.7466C122.486 13.4233 121.95 13.9515 121.273 14.3311C120.596 14.7107 119.849 14.9005 119.032 14.9005ZM119.032 12.9694C119.725 12.9694 120.278 12.7383 120.691 12.2762C121.112 11.814 121.322 11.2033 121.322 10.4441C121.322 9.67658 121.112 9.06588 120.691 8.61198C120.278 8.14983 119.725 7.91875 119.032 7.91875C118.331 7.91875 117.77 8.1457 117.349 8.5996C116.936 9.0535 116.73 9.66832 116.73 10.4441C116.73 11.2116 116.936 11.8264 117.349 12.2886C117.77 12.7425 118.331 12.9694 119.032 12.9694Z" fill="#0D2793"/>
<path d="M131.164 14.9005C130.529 14.9005 129.959 14.7974 129.456 14.5911C128.953 14.3847 128.548 14.0794 128.243 13.675C127.946 13.2706 127.789 12.7837 127.772 12.2143H130.025C130.058 12.5361 130.17 12.7837 130.36 12.957C130.549 13.1221 130.797 13.2046 131.102 13.2046C131.416 13.2046 131.664 13.1345 131.845 12.9942C132.027 12.8456 132.117 12.6434 132.117 12.3876C132.117 12.173 132.043 11.9956 131.895 11.8553C131.754 11.715 131.577 11.5995 131.362 11.5087C131.156 11.4179 130.859 11.3147 130.471 11.1992C129.91 11.0259 129.452 10.8526 129.097 10.6793C128.742 10.506 128.437 10.2501 128.181 9.91178C127.925 9.57342 127.797 9.1319 127.797 8.58722C127.797 7.77846 128.09 7.14712 128.676 6.69323C129.262 6.23108 130.025 6 130.966 6C131.924 6 132.695 6.23108 133.281 6.69323C133.867 7.14712 134.181 7.78258 134.222 8.5996H131.932C131.915 8.31901 131.812 8.10031 131.622 7.94351C131.433 7.77846 131.189 7.69593 130.892 7.69593C130.636 7.69593 130.43 7.76608 130.273 7.90637C130.116 8.03842 130.038 8.23235 130.038 8.48819C130.038 8.76878 130.17 8.98748 130.434 9.14428C130.698 9.30108 131.111 9.47026 131.672 9.65182C132.233 9.84163 132.687 10.0232 133.034 10.1965C133.388 10.3698 133.694 10.6215 133.95 10.9516C134.205 11.2817 134.333 11.7067 134.333 12.2267C134.333 12.7218 134.205 13.1716 133.95 13.576C133.702 13.9804 133.339 14.3022 132.86 14.5415C132.382 14.7809 131.816 14.9005 131.164 14.9005Z" fill="#0D2793"/>
<path d="M142.63 8.92145C142.63 9.42487 142.515 9.88702 142.284 10.3079C142.053 10.7205 141.698 11.0548 141.219 11.3106C140.74 11.5664 140.146 11.6944 139.436 11.6944H138.124V14.8139H136.007V6.12379H139.436C140.13 6.12379 140.716 6.24345 141.194 6.48278C141.673 6.72211 142.032 7.05222 142.271 7.47311C142.511 7.89399 142.63 8.37678 142.63 8.92145ZM139.275 10.0108C139.68 10.0108 139.981 9.9159 140.179 9.72609C140.377 9.53628 140.476 9.26807 140.476 8.92145C140.476 8.57484 140.377 8.30663 140.179 8.11682C139.981 7.927 139.68 7.8321 139.275 7.8321H138.124V10.0108H139.275Z" fill="#0D2793"/>
<path d="M146.22 7.81972V9.57754H149.055V11.2116H146.22V13.1179H149.427V14.8139H144.104V6.12379H149.427V7.81972H146.22Z" fill="#0D2793"/>
<path d="M153.289 7.81972V9.57754H156.124V11.2116H153.289V13.1179H156.495V14.8139H151.172V6.12379H156.495V7.81972H153.289Z" fill="#0D2793"/>
<path d="M161.497 6.12379C162.413 6.12379 163.213 6.30535 163.898 6.66847C164.583 7.03159 165.111 7.54325 165.483 8.20347C165.862 8.85543 166.052 9.61055 166.052 10.4688C166.052 11.3189 165.862 12.074 165.483 12.7342C165.111 13.3944 164.579 13.9061 163.886 14.2692C163.201 14.6323 162.404 14.8139 161.497 14.8139H158.241V6.12379H161.497ZM161.36 12.9818C162.161 12.9818 162.784 12.7631 163.23 12.3257C163.675 11.8883 163.898 11.2693 163.898 10.4688C163.898 9.66832 163.675 9.04524 163.23 8.5996C162.784 8.15395 162.161 7.93113 161.36 7.93113H160.358V12.9818H161.36Z" fill="#0D2793"/>
<path d="M41 24.1859C41 23.3277 41.1857 22.5643 41.5571 21.8958C41.9284 21.2191 42.4442 20.6951 43.1044 20.3237C43.7729 19.9441 44.528 19.7542 45.3698 19.7542C46.4014 19.7542 47.2844 20.0266 48.0189 20.5713C48.7534 21.1159 49.2444 21.8587 49.492 22.7995H47.1648C46.9915 22.4364 46.7439 22.1599 46.422 21.9701C46.1084 21.7803 45.7494 21.6854 45.345 21.6854C44.6931 21.6854 44.1649 21.9123 43.7605 22.3662C43.3561 22.8201 43.154 23.4267 43.154 24.1859C43.154 24.9452 43.3561 25.5518 43.7605 26.0057C44.1649 26.4596 44.6931 26.6865 45.345 26.6865C45.7494 26.6865 46.1084 26.5916 46.422 26.4018C46.7439 26.212 46.9915 25.9355 47.1648 25.5724H49.492C49.2444 26.5132 48.7534 27.2559 48.0189 27.8006C47.2844 28.337 46.4014 28.6053 45.3698 28.6053C44.528 28.6053 43.7729 28.4196 43.1044 28.0482C42.4442 27.6686 41.9284 27.1445 41.5571 26.4761C41.1857 25.8076 41 25.0442 41 24.1859Z" fill="#0D2793"/>
<path d="M55.2696 28.63C54.4525 28.63 53.7015 28.4402 53.0166 28.0606C52.3398 27.681 51.7993 27.1528 51.3949 26.4761C50.9988 25.7911 50.8007 25.0236 50.8007 24.1736C50.8007 23.3235 50.9988 22.5602 51.3949 21.8834C51.7993 21.2067 52.3398 20.6785 53.0166 20.2989C53.7015 19.9193 54.4525 19.7295 55.2696 19.7295C56.0866 19.7295 56.8334 19.9193 57.5102 20.2989C58.1951 20.6785 58.7316 21.2067 59.1194 21.8834C59.5156 22.5602 59.7136 23.3235 59.7136 24.1736C59.7136 25.0236 59.5156 25.7911 59.1194 26.4761C58.7233 27.1528 58.1869 27.681 57.5102 28.0606C56.8334 28.4402 56.0866 28.63 55.2696 28.63ZM55.2696 26.6989C55.9628 26.6989 56.5157 26.4678 56.9283 26.0057C57.3492 25.5435 57.5597 24.9328 57.5597 24.1736C57.5597 23.4061 57.3492 22.7954 56.9283 22.3415C56.5157 21.8793 55.9628 21.6482 55.2696 21.6482C54.5681 21.6482 54.0069 21.8752 53.586 22.3291C53.1734 22.783 52.9671 23.3978 52.9671 24.1736C52.9671 24.9411 53.1734 25.5559 53.586 26.018C54.0069 26.4719 54.5681 26.6989 55.2696 26.6989Z" fill="#0D2793"/>
<path d="M69.0367 28.5434H66.9199L63.3795 23.1832V28.5434H61.2627V19.8533H63.3795L66.9199 25.2382V19.8533H69.0367V28.5434Z" fill="#0D2793"/>
<path d="M77.1939 19.8533V21.5492H74.8914V28.5434H72.7746V21.5492H70.4721V19.8533H77.1939Z" fill="#0D2793"/>
<path d="M83.0593 28.5434L81.252 25.2629H80.7445V28.5434H78.6277V19.8533H82.1804C82.8654 19.8533 83.4472 19.9729 83.9259 20.2123C84.4128 20.4516 84.7759 20.7817 85.0152 21.2026C85.2546 21.6152 85.3742 22.0774 85.3742 22.589C85.3742 23.1667 85.2092 23.6825 84.8791 24.1364C84.5572 24.5903 84.0786 24.9122 83.4431 25.102L85.4485 28.5434H83.0593ZM80.7445 23.7651H82.0566C82.4445 23.7651 82.7334 23.6701 82.9232 23.4803C83.1212 23.2905 83.2203 23.0223 83.2203 22.6757C83.2203 22.3456 83.1212 22.0856 82.9232 21.8958C82.7334 21.706 82.4445 21.6111 82.0566 21.6111H80.7445V23.7651Z" fill="#0D2793"/>
<path d="M91.1843 28.63C90.3672 28.63 89.6162 28.4402 88.9313 28.0606C88.2545 27.681 87.714 27.1528 87.3096 26.4761C86.9135 25.7911 86.7154 25.0236 86.7154 24.1736C86.7154 23.3235 86.9135 22.5602 87.3096 21.8834C87.714 21.2067 88.2545 20.6785 88.9313 20.2989C89.6162 19.9193 90.3672 19.7295 91.1843 19.7295C92.0013 19.7295 92.7481 19.9193 93.4249 20.2989C94.1098 20.6785 94.6463 21.2067 95.0341 21.8834C95.4303 22.5602 95.6283 23.3235 95.6283 24.1736C95.6283 25.0236 95.4303 25.7911 95.0341 26.4761C94.638 27.1528 94.1016 27.681 93.4249 28.0606C92.7481 28.4402 92.0013 28.63 91.1843 28.63ZM91.1843 26.6989C91.8775 26.6989 92.4304 26.4678 92.843 26.0057C93.2639 25.5435 93.4744 24.9328 93.4744 24.1736C93.4744 23.4061 93.2639 22.7954 92.843 22.3415C92.4304 21.8793 91.8775 21.6482 91.1843 21.6482C90.4828 21.6482 89.9216 21.8752 89.5007 22.3291C89.0881 22.783 88.8818 23.3978 88.8818 24.1736C88.8818 24.9411 89.0881 25.5559 89.5007 26.018C89.9216 26.4719 90.4828 26.6989 91.1843 26.6989Z" fill="#0D2793"/>
<path d="M99.2942 26.9093H102.067V28.5434H97.1774V19.8533H99.2942V26.9093Z" fill="#0D2793"/>
<path d="M105.565 26.9093H108.338V28.5434H103.448V19.8533H105.565V26.9093Z" fill="#0D2793"/>
<path d="M111.836 21.5492V23.307H114.67V24.9411H111.836V26.8474H115.042V28.5434H109.719V19.8533H115.042V21.5492H111.836Z" fill="#0D2793"/>
<path d="M121.219 28.5434L119.412 25.2629H118.904V28.5434H116.788V19.8533H120.34C121.025 19.8533 121.607 19.9729 122.086 20.2123C122.573 20.4516 122.936 20.7817 123.175 21.2026C123.414 21.6152 123.534 22.0774 123.534 22.589C123.534 23.1667 123.369 23.6825 123.039 24.1364C122.717 24.5903 122.238 24.9122 121.603 25.102L123.608 28.5434H121.219ZM118.904 23.7651H120.216C120.604 23.7651 120.893 23.6701 121.083 23.4803C121.281 23.2905 121.38 23.0223 121.38 22.6757C121.38 22.3456 121.281 22.0856 121.083 21.8958C120.893 21.706 120.604 21.6111 120.216 21.6111H118.904V23.7651Z" fill="#0D2793"/>
<defs>
<linearGradient id="paint0_linear_428_93756" x1="28.9567" y1="-2.15333" x2="9.01" y2="36.89" gradientUnits="userSpaceOnUse">
<stop offset="0.0001" stop-color="#35FBE2"/>
<stop offset="1" stop-color="#2784C7"/>
</linearGradient>
<linearGradient id="paint1_linear_428_93756" x1="17.1139" y1="24.1617" x2="17.1139" y2="9.20848" gradientUnits="userSpaceOnUse">
<stop stop-color="#D1D1D1"/>
<stop offset="0.258824" stop-color="#DEDEDE"/>
<stop offset="1" stop-color="#EBEBEB"/>
</linearGradient>
<linearGradient id="paint2_linear_428_93756" x1="7.92402" y1="20.736" x2="26.4057" y2="20.7358" gradientUnits="userSpaceOnUse">
<stop stop-color="#35FBE2"/>
<stop offset="1" stop-color="#0D2692"/>
</linearGradient>
<linearGradient id="paint3_linear_428_93756" x1="15.6124" y1="23.3597" x2="22.005" y2="12.9356" gradientUnits="userSpaceOnUse">
<stop stop-color="#212A58"/>
<stop offset="1" stop-color="#1A2429"/>
</linearGradient>
<clipPath id="clip0_428_93756">
<rect width="34" height="34" fill="white"/>
</clipPath>
</defs>
</svg>
