<?xml version="1.0" encoding="UTF-8" standalone="no"?><!DOCTYPE svg PUBLIC "-//W3C//DTD SVG 1.1//EN" "http://www.w3.org/Graphics/SVG/1.1/DTD/svg11.dtd"><svg width="100%" height="100%" viewBox="0 0 67 67" version="1.1" xmlns="http://www.w3.org/2000/svg" xmlns:xlink="http://www.w3.org/1999/xlink" xml:space="preserve" style="fill-rule:evenodd;clip-rule:evenodd;stroke-linecap:round;stroke-linejoin:round;stroke-miterlimit:1.5;"><g id="g3042"><path d="M26.22,51.054c4.689,-4.688 7.323,-11.047 7.323,-17.677c0,-6.631 -2.634,-12.99 -7.323,-17.678c4.689,4.688 7.323,11.047 7.323,17.678c0,6.63 -2.634,12.989 -7.323,17.677Z" style="fill:none;stroke:#008fff;stroke-width:8.33px;"/><path d="M10.669,43.689c2.735,-2.735 4.272,-6.445 4.272,-10.312c0,-3.868 -1.537,-7.577 -4.272,-10.312c2.735,2.735 4.272,6.444 4.272,10.312c0,3.867 -1.537,7.577 -4.272,10.312Z" style="fill:none;stroke:#008fff;stroke-width:8.33px;"/><path d="M43.793,58.42c6.642,-6.642 10.374,-15.65 10.374,-25.043c0,-9.393 -3.732,-18.402 -10.374,-25.044c6.642,6.642 10.374,15.651 10.374,25.044c0,9.393 -3.732,18.401 -10.374,25.043Z" style="fill:none;stroke:#008fff;stroke-width:8.33px;"/></g></svg>