<svg xmlns="http://www.w3.org/2000/svg" viewBox="0 0 24 24"><path fill="#ffffff" d="M7 12a5 5 0 1 1 5 5 5 5 0 0 1-5-5Zm5-7a1 1 0 0 0 1-1V3a1 1 0 0 0-2 0v1a1 1 0 0 0 1 1Zm-1 15v1a1 1 0 0 0 2 0v-1a1 1 0 0 0-2 0Zm10-9h-1a1 1 0 0 0 0 2h1a1 1 0 0 0 0-2ZM3 13h1a1 1 0 0 0 0-2H3a1 1 0 0 0 0 2Zm14.657-5.657a1 1 0 0 0 .707-.293l.707-.707a1 1 0 1 0-1.414-1.414l-.707.707a1 1 0 0 0 .707 1.707ZM5.636 16.95l-.707.707a1 1 0 1 0 1.414 1.414l.707-.707a1 1 0 0 0-1.414-1.414Zm11.314 0a1 1 0 0 0 0 1.414l.707.707a1 1 0 0 0 1.414-1.414l-.707-.707a1 1 0 0 0-1.414 0ZM5.636 7.05A1 1 0 0 0 7.05 5.636l-.707-.707a1 1 0 0 0-1.414 1.414Z"/></svg>
